<?xml version="1.0" encoding="UTF-8"?>
<!DOCTYPE svg PUBLIC "-//W3C//DTD SVG 1.1//EN" "http://www.w3.org/Graphics/SVG/1.1/DTD/svg11.dtd">
<!-- Creator: CorelDRAW X7 -->
<svg xmlns="http://www.w3.org/2000/svg" xml:space="preserve" width="12.5731mm" height="6.5788mm" version="1.1" style="shape-rendering:geometricPrecision; text-rendering:geometricPrecision; image-rendering:optimizeQuality; fill-rule:evenodd; clip-rule:evenodd"
viewBox="0 0 483 253"
 xmlns:xlink="http://www.w3.org/1999/xlink">
 <defs>
  <style type="text/css">
   <![CDATA[
    .fil6 {fill:#eb9436}
    .fil7 {fill:#dd4949}
    .fil5 {fill:#bed6db}
    .fil2 {fill:#eb9436;fill-rule:nonzero}
    .fil4 {fill:#485059}
    .fil3 {fill:#3A3F47}
    .fil1 {fill:#4d4d4d}
    .fil0 {fill:#eb9436;fill-rule:nonzero}
   ]]>
  </style>
 </defs>
 <g id="Layer_x0020_1">
  <metadata id="CorelCorpID_0Corel-Layer"/>
  <path class="fil0" d="M376 231c50,0 78,-3 91,-17 14,-13 16,-65 16,-88 0,-22 -2,-75 -16,-88 -13,-13 -38,-16 -91,-16 -74,0 -339,-9 -357,14 -18,23 -19,67 -19,90 0,23 1,68 19,91 18,22 283,14 357,14z"/>
  <path class="fil1" d="M376 231c50,0 78,-3 91,-17 14,-13 16,-65 16,-88 0,-22 -2,-75 -16,-88 -13,-13 -38,-16 -91,-16 -74,0 -339,-9 -357,14 -18,23 -19,67 -19,90 0,23 1,68 19,91 18,22 283,14 357,14z"/>
  <path class="fil2" d="M364 222c49,0 67,-3 80,-15 12,-12 17,-60 17,-81 0,-20 -5,-68 -17,-80 -13,-12 -25,-15 -80,-15 -11,0 -28,1 -45,5 -15,6 -38,10 -61,12 -4,-3 -12,-4 -19,-4 -11,-4 -34,-1 -48,0 -1,0 -3,0 -4,0 0,0 -48,-2 -69,0 -5,0 -13,2 -14,2 -7,1 -34,-8 -39,-7 -10,2 -24,2 -27,5 -17,21 -17,61 -17,82 0,21 0,62 17,83 3,3 17,3 27,5 5,1 32,-8 39,-8 4,2 9,2 14,3 21,2 69,0 69,0 1,0 3,0 4,0 14,1 37,4 48,0 7,0 15,-2 19,-4 23,2 46,5 61,12 17,3 34,5 45,5z"/>
  <path class="fil3" d="M191 44l50 0 73 -14c-26,-3 -77,-3 -123,-2l0 16z"/>
  <path class="fil3" d="M187 28c-48,0 -89,2 -89,2l20 14 69 0 0 -16z"/>
  <path class="fil3" d="M346 126c0,0 0,-52 -27,-90l-61 12c0,0 17,21 17,78 0,57 -17,79 -17,79l61 12c27,-39 27,-91 27,-91z"/>
  <path class="fil4" d="M191 209l50 0 73 14c-26,3 -77,3 -123,2l0 -16z"/>
  <path class="fil4" d="M187 225c-48,0 -89,-2 -89,-2l20 -14 69 0 0 16z"/>
  <path class="fil3" d="M104 206c-5,-19 -5,-140 0,-160 0,0 -24,-9 -39,-7 -8,13 -18,41 -18,87 0,47 10,75 18,88 15,1 39,-8 39,-8z"/>
  <path class="fil2" d="M300 25l-5 -21c-1,-2 1,-4 3,-4 4,1 10,3 12,11 3,12 -10,14 -10,14z"/>
  <path class="fil2" d="M300 228l-5 21c-1,2 1,4 3,4 4,-1 10,-3 12,-11 3,-12 -10,-14 -10,-14z"/>
  <g id="_2066711661936">
   <path class="fil1" d="M459 89c0,0 -2,0 -4,0 -2,1 -3,1 -5,1 -2,0 -4,1 -6,1 -2,0 -5,0 -7,0 -3,0 -6,0 -9,-1 -2,0 -5,0 -8,0 -3,-1 -6,-1 -9,-2 -3,0 -6,-1 -9,-1 -3,-1 -6,-2 -8,-3 -3,0 -5,-1 -8,-2 -2,-1 -4,-2 -7,-3 -2,-1 -3,-1 -5,-2 -2,-1 -3,-2 -4,-3 -2,-1 -4,-2 -4,-2 0,0 2,1 4,2 1,0 3,1 4,2 2,1 4,1 6,2 2,1 4,1 7,2 2,1 5,1 8,2 2,1 5,1 8,1 3,1 6,2 8,2 3,0 6,0 9,1 3,0 6,0 9,0 2,0 5,0 7,0 3,-1 5,-1 7,-1 2,0 4,0 6,-1 2,0 4,0 5,0 2,-1 4,-1 4,-1l1 6z"/>
   <path class="fil1" d="M458 170c0,0 -2,0 -4,-1 -1,0 -3,0 -5,-1 -2,0 -4,0 -6,0 -2,-1 -4,-1 -7,-1 -2,0 -5,0 -7,0 -3,0 -6,0 -9,0 -3,0 -6,1 -9,1 -2,0 -5,1 -8,1 -3,1 -6,1 -8,2 -3,0 -6,1 -8,2 -3,0 -5,1 -7,2 -2,1 -4,1 -6,2 -1,1 -3,1 -4,2 -2,1 -4,2 -4,2 0,0 2,-1 4,-3 1,0 2,-1 4,-2 2,-1 3,-1 5,-2 3,-1 5,-2 7,-3 3,-1 5,-2 8,-3 2,-1 5,-1 8,-2 3,-1 6,-1 9,-2 3,0 6,-1 9,-1 3,0 6,-1 8,-1 3,0 6,0 9,0 2,0 5,0 7,0 2,0 4,0 6,1 2,0 3,0 5,0 2,1 4,1 4,1l-1 6z"/>
  </g>
  <path class="fil4" d="M258 205l61 12c27,-39 27,-91 27,-91l-71 0c0,57 -17,79 -17,79z"/>
  <path class="fil4" d="M104 206c0,0 -1,-1 -1,-2 0,0 0,0 0,0 0,-1 0,-1 0,-2 -2,-13 -3,-44 -3,-76l-53 0c0,47 10,75 18,88 15,1 39,-8 39,-8z"/>
  <path class="fil2" d="M474 152l8 3c0,0 0,0 0,0 1,-11 1,-21 1,-29 0,-7 0,-17 -1,-29 0,0 0,0 0,1l-8 3c-1,1 -2,2 -2,3l0 44c0,2 1,3 2,4z"/>
  <path class="fil5" d="M445 37c0,0 0,-1 0,-1 0,-2 2,-3 4,-3 13,3 21,14 24,32 0,2 -1,4 -3,4 -2,1 -4,-1 -5,-3 -3,-19 -11,-24 -17,-25 -2,-1 -3,-2 -3,-4z"/>
  <path class="fil6" d="M458 37c-2,-2 -5,-3 -9,-4 -2,0 -4,1 -4,3 0,0 0,1 0,1 0,2 1,3 3,4 2,0 4,1 6,3 3,-2 4,-5 4,-7z"/>
  <path class="fil5" d="M445 216c0,0 0,0 0,1 0,2 2,3 4,2 13,-3 21,-13 24,-31 0,-2 -1,-4 -3,-5 -2,0 -4,2 -5,4 -3,19 -11,24 -17,25 -2,0 -3,2 -3,4z"/>
  <path class="fil6" d="M458 216c-2,1 -5,3 -9,3 -2,1 -4,0 -4,-2 0,-1 0,-1 0,-1 0,-2 1,-4 3,-4 2,0 4,-1 6,-3 3,2 4,4 4,7z"/>
  <path class="fil2" d="M2 126c0,11 1,26 2,41 2,-1 3,-1 5,-1 3,-1 5,-4 5,-7 -1,-22 -1,-44 0,-65 0,-4 -2,-7 -5,-7 -2,0 -3,-1 -5,-1 -1,15 -2,30 -2,40z"/>
  <path class="fil7" d="M6 74c0,0 0,0 0,0 2,0 4,-1 5,-3 1,-7 3,-13 5,-19 1,-2 0,-4 -2,-5 0,0 0,0 0,0 -1,0 -1,0 -2,0 -3,7 -6,16 -8,26 1,0 1,0 2,1z"/>
  <path class="fil7" d="M14 206c2,-1 3,-3 2,-5 -2,-6 -4,-13 -5,-19 -1,-2 -3,-3 -5,-3 0,0 0,0 0,0 -1,0 -1,1 -2,1 2,9 5,18 8,26 1,0 1,0 2,0 0,0 0,0 0,0z"/>
  <path class="fil3" d="M200 21l0 0c0,-1 1,-2 2,-2l11 0c1,0 1,1 1,2l0 0c0,1 0,1 -1,1l-11 0c-1,0 -2,0 -2,-1z"/>
  <path class="fil3" d="M160 21l0 0c0,-1 1,-2 2,-2l11 0c1,0 2,1 2,2l0 0c0,1 -1,1 -2,1l-11 0c-1,0 -2,0 -2,-1z"/>
  <path class="fil3" d="M200 232l0 0c0,-1 1,-2 2,-2l11 0c1,0 1,1 1,2l0 0c0,1 0,2 -1,2l-11 0c-1,0 -2,-1 -2,-2z"/>
  <path class="fil3" d="M160 232l0 0c0,-1 1,-2 2,-2l11 0c1,0 2,1 2,2l0 0c0,1 -1,2 -2,2l-11 0c-1,0 -2,-1 -2,-2z"/>
 </g>
</svg>
