<?xml version="1.0" encoding="UTF-8"?>
<!DOCTYPE svg PUBLIC "-//W3C//DTD SVG 1.1//EN" "http://www.w3.org/Graphics/SVG/1.1/DTD/svg11.dtd">
<!-- Creator: CorelDRAW X7 -->
<svg xmlns="http://www.w3.org/2000/svg" xml:space="preserve" width="120mm" height="83mm" version="1.1" style="shape-rendering:geometricPrecision; text-rendering:geometricPrecision; image-rendering:optimizeQuality; fill-rule:evenodd; clip-rule:evenodd"
viewBox="0 0 12000 8300"
 xmlns:xlink="http://www.w3.org/1999/xlink">
 <defs>
  <style type="text/css">
   <![CDATA[
    .fil0 {fill:#000000}
    .fil2 {fill:#FFF212;fill-rule:nonzero}
    .fil3 {fill:#F8A688;fill-rule:nonzero}
    .fil1 {fill:#E86537;fill-rule:nonzero}
   ]]>
  </style>
 </defs>
 <g id="Layer_x0020_1">
  <metadata id="CorelCorpID_0Corel-Layer"/>
  <g id="_1763044861200">
   <path class="fil0" d="M11305 5380c416,246 695,698 695,1214 0,781 -637,1413 -1422,1413 -750,0 -1365,-577 -1418,-1309 122,-153 267,-428 742,-860 421,-383 996,-460 1403,-458zm-3171 -3543c26,-112 54,-236 83,-361l-52 51c-132,-312 -297,-694 -337,-761 -28,-6 -103,-10 -193,-12 53,173 31,327 -58,366 -105,46 -264,-84 -355,-291 -91,-206 -80,-410 25,-456 104,-46 262,82 353,286 250,3 275,22 286,31 12,8 40,30 341,740 82,-364 161,-724 169,-796 -17,-20 -66,-60 -125,-107 -44,170 -132,286 -214,271 -96,-18 -149,-211 -117,-431 32,-220 136,-384 233,-366 95,18 147,206 118,423 184,140 193,171 197,183 5,15 16,51 -265,1261 42,28 73,74 82,128 17,104 -50,201 -151,217 -61,11 -121,-12 -162,-55l-114 62c-4,37 -22,72 -51,95l0 0c-7,5 -15,10 -23,14l-260 162c-13,9 -27,15 -42,19 -72,19 -145,-26 -164,-99 -18,-69 17,-138 80,-162l253 -159 0 0c12,-8 25,-14 39,-18 37,-10 75,-2 106,18l123 -67c0,-90 63,-170 153,-184 14,-3 28,-3 42,-2zm192 5212c-15,52 -79,121 -281,173 -376,95 -2373,265 -2578,217 -149,-34 -466,-386 -626,-575 328,90 1005,213 1715,213 872,0 1458,-16 1613,-16 50,0 105,-1 157,-12zm-5861 -3319c0,0 855,20 1340,251 486,231 657,401 1217,408 561,6 1116,-145 1290,-266 0,0 208,-604 -503,-556 -711,47 -992,54 -1375,-109 -382,-163 -1135,-564 -1545,-455 -410,108 -485,421 -424,727zm1391 2668c57,152 88,317 88,489 0,780 -637,1413 -1422,1413 -786,0 -1422,-633 -1422,-1413 0,-319 106,-614 286,-851 736,-67 1689,102 2246,284 78,26 153,52 224,78zm-1334 -152c356,0 645,287 645,641 0,354 -289,641 -645,641 -356,0 -645,-287 -645,-641 0,-354 289,-641 645,-641zm8056 -293c356,0 645,287 645,641 0,354 -289,641 -645,641 -356,0 -645,-287 -645,-641 0,-354 289,-641 645,-641z"/>
   <path class="fil1" d="M8891 1257l129 -67 0 786 -86 -15 7 101c0,0 -226,-61 -297,13 -56,59 91,335 91,335l-272 69c49,131 289,776 434,1182l1 3 1 2 0 2 1 2 1 2 1 2 0 0 1 3 0 2 1 2 1 2 1 2 0 2 1 2 1 3 1 2 0 1 0 1 1 2 1 2 1 2 0 2 1 2 1 2 1 2 0 3 2 6 1 2 1 2 1 2 0 2 1 2 1 2 0 2 1 2 0 0 1 2 1 2 0 2 1 2 1 2 0 2 1 2 1 2 0 2 1 1 0 1 1 2 1 2 0 2 1 2 1 2 0 1 1 2 1 2 0 2 0 1 1 1 1 2 0 2 1 2 1 2 0 2 1 1 1 2 0 2 1 2 0 1 0 1 1 1 0 1 0 0 1 1 0 1 0 1 1 1 0 1 0 1 1 1 0 1 0 1 1 0 0 1 0 1 0 1 1 1 0 1 0 1 1 1 0 0 0 1 0 1 1 0 0 1 0 1 1 1 0 1 0 1 0 1 1 1 0 1 1 1 0 1 0 1 1 1 0 1 0 1 1 1 0 1 0 1 0 0 0 0 1 1 0 1 0 1 1 1 0 1 0 1 1 1 0 2 1 1 1 4 0 1 1 1 0 0 0 1 0 1c133,393 189,702 -52,995 -230,281 -372,353 -433,781 -214,-176 -262,-375 -262,-515 0,-150 7,-870 7,-1108 0,-237 69,-292 199,-305 32,-4 85,-8 145,-12l-400 -1129 -6 2c0,0 -281,-451 -325,-534 -45,-84 -31,-128 22,-185 53,-57 407,-409 407,-409l624 -220 3 48zm-8576 4013l-133 0 0 -811 151 0c-12,43 -18,88 -18,135l0 676zm2193 -1175l-1691 0c-5,0 -9,0 -13,0l0 0 0 0 -2 0c-3,1 -6,1 -10,1l-1 0 0 0 -1 0c-4,0 -7,0 -11,1l-2 0 0 0 -1 0 -8 1 -1 0 -4 0 -1 0 -1 0 -2 1 -2 0 -1 0 0 0 -6 1 -1 0 -1 0 -2 0 -2 0 -1 1 -6 1 -1 0 -423 0c-125,0 -225,-100 -225,-224 0,-123 100,-223 225,-223l2140 0c3,25 7,50 12,75 0,0 38,1 101,4 -15,84 -36,218 -58,361zm-1832 2133c665,-386 2188,-159 2956,92 769,251 1199,566 1483,388 284,-179 137,-1556 -782,-2115 -920,-559 -2190,-429 -3162,283 -973,712 -1071,1288 -1007,1360 144,163 377,69 512,-8zm5535 -1970c35,25 58,72 15,165 -89,190 -486,890 -369,1365 67,275 273,473 441,594 462,-41 1565,234 1767,228 273,-7 348,-270 368,-422 -18,333 -30,568 -117,614 -96,51 -1339,-226 -1957,-364l-9 -2 -8 -2 -9 -2 -4 0 -4 -1 -24 -6 -2 0 -6 -2 -8 -1 -8 -2 -7 -2 -1 0 -7 -2 -8 -1 -7 -2 -5 -1 -2 -1 -8 -1 -7 -2 -7 -1 -2 -1 -5 -1 -6 -1 -7 -2 -7 -1 0 0c-83,-19 -141,-32 -165,-36 -171,-32 -643,-210 -521,-785 93,-437 511,-1052 706,-1322zm5594 1166c0,0 -1179,-244 -1903,414 -723,658 -681,950 -959,1007 -210,43 -367,53 -431,55 17,-41 28,-91 32,-155 16,-307 191,-1553 1409,-1926 0,0 24,0 36,-34 1059,-280 2032,444 1816,639z"/>
   <g>
    <path class="fil2" d="M182 5175c-107,-51 -182,-171 -182,-311 0,-139 75,-259 182,-310l0 621zm9004 -3591c0,154 -74,279 -166,279l0 -559c92,0 166,125 166,280zm-8867 2945l0 0 0 0 0 0zm-1 5l0 0 0 0zm0 5l-1 7 1 -6 0 0 0 0 0 0 0 -1 0 0 0 0 0 0 0 -1 0 0 0 0 0 0 0 0 0 -1 0 0 0 0 0 0 0 0 0 -1 0 0 0 0 0 -1 0 0 0 0 0 -1 0 0 0 5z"/>
   </g>
   <g>
    <path class="fil3" d="M9937 4503c-123,-315 -733,-1619 -848,-1805 -114,-186 -325,-340 -635,-243 0,0 342,915 489,1336 146,421 220,745 -33,1052 -252,308 -399,365 -448,915 -49,550 -24,979 -146,1044 -123,65 -2118,-405 -2290,-437 -171,-32 -643,-210 -521,-785 122,-575 807,-1457 807,-1457 -174,121 -729,272 -1290,266 -560,-7 -731,-177 -1217,-408 -384,-183 -999,-234 -1239,-247 -15,84 -36,218 -58,361l-1691 0c-278,0 -502,224 -502,499l0 707c0,110 36,212 96,294l12 -15 9 -11 12 -17 9 -11c5,-5 9,-11 14,-17l7 -8c5,-6 10,-12 15,-19l9 -10c4,-5 9,-11 13,-16l11 -12c5,-6 10,-12 15,-18l8 -8c6,-8 13,-15 19,-22l8 -8c6,-7 12,-13 18,-20l7 -8c7,-7 14,-15 21,-22l6 -7c8,-7 16,-15 24,-23l5 -6c8,-8 16,-16 25,-25l5 -5c8,-8 16,-16 24,-24l7 -6c9,-8 18,-17 27,-26l4 -4c10,-9 20,-18 30,-28l3 -3c10,-9 20,-18 30,-27l3 -3c11,-9 22,-19 32,-28l4 -4c11,-9 22,-19 33,-29l4 -3c11,-9 22,-18 33,-28l4 -3c12,-10 24,-20 36,-30l2 -2c13,-10 26,-20 38,-30l2 -2c13,-10 26,-20 38,-30l4 -3c13,-10 26,-20 40,-31l2 -1c14,-11 27,-21 42,-32l2 -2c14,-10 29,-21 44,-32 14,-11 29,-21 44,-32l3 -2c14,-10 28,-20 42,-29l4 -3c14,-10 29,-19 44,-29l3 -3c14,-9 28,-17 42,-26l6 -4c14,-9 28,-18 43,-27l5 -3c14,-8 28,-17 41,-25l6 -3c15,-9 29,-17 43,-25l4 -2c15,-8 29,-16 43,-24l8 -5c13,-7 26,-14 39,-20l9 -5c14,-7 28,-15 42,-22l9 -4c13,-6 25,-13 38,-19l11 -5c13,-6 26,-13 39,-19l13 -6c12,-5 24,-10 36,-16l13 -6c12,-5 23,-9 34,-14 7,-3 13,-6 20,-9 11,-4 22,-9 32,-13l17 -7c10,-4 21,-8 31,-12 7,-3 15,-5 22,-8 9,-4 18,-7 27,-10 8,-3 16,-6 24,-9 9,-3 18,-7 28,-10 8,-3 17,-6 26,-9 7,-2 14,-5 22,-7 9,-3 19,-7 28,-10 8,-2 17,-5 25,-7 10,-4 21,-7 32,-10l15 -5c12,-3 24,-7 35,-10l12 -3c11,-3 23,-7 34,-10 7,-2 14,-3 21,-5l2 -1c12,-3 24,-6 36,-9l10 -2c33,-8 66,-16 100,-23l3 -1c665,-138 1343,-51 1896,285 919,559 1066,1936 782,2115 -162,102 -373,43 -666,-74 114,99 195,163 225,176 188,81 1010,267 1882,267 872,0 1458,-16 1613,-16 155,0 358,-8 375,-316 16,-307 191,-1553 1409,-1926 0,0 106,0 -16,-316zm-7706 -144c11,-3 23,-7 34,-10l-34 10z"/>
   </g>
  </g>
 </g>
</svg>
